<svg width="58" height="57" viewBox="0 0 58 57" fill="none" xmlns="http://www.w3.org/2000/svg">
<g filter="url(#filter0_dd_149_26015)">
<path fill-rule="evenodd" clip-rule="evenodd" d="M25.3444 44.7745C24.7179 44.8497 23.5653 45 23.4651 45H14L20.3769 15.0699C23.7157 21.5909 27.0419 28.1933 30.3557 34.7957C30.9797 36.2097 31.3427 37.725 31.4268 39.2683C31.4268 42.5695 29.1154 44.1669 25.3193 44.7682L25.3444 44.7745Z" fill="url(#paint0_linear_149_26015)"/>
<path fill-rule="evenodd" clip-rule="evenodd" d="M38.9438 38.93C37.0082 35.1716 35.0788 31.4131 33.1808 27.6546C32.1159 25.5686 31.0572 23.4075 29.9923 21.3905C29.6541 20.6701 29.2719 20.0249 28.9713 19.3421C28.4025 18.0126 28.0311 16.6071 27.8688 15.1702V14.312C27.8912 13.9141 27.9542 13.5195 28.0567 13.1343C29.1968 9.52619 33.4063 9.18792 35.9119 9H45.3395L38.9438 38.93Z" fill="url(#paint1_linear_149_26015)"/>
</g>
<defs>
<filter id="filter0_dd_149_26015" x="0.5" y="0" width="57" height="57" filterUnits="userSpaceOnUse" color-interpolation-filters="sRGB">
<feFlood flood-opacity="0" result="BackgroundImageFix"/>
<feColorMatrix in="SourceAlpha" type="matrix" values="0 0 0 0 0 0 0 0 0 0 0 0 0 0 0 0 0 0 127 0" result="hardAlpha"/>
<feOffset dy="1.5"/>
<feGaussianBlur stdDeviation="1.5"/>
<feColorMatrix type="matrix" values="0 0 0 0 0.0627451 0 0 0 0 0.0941176 0 0 0 0 0.156863 0 0 0 0.06 0"/>
<feBlend mode="normal" in2="BackgroundImageFix" result="effect1_dropShadow_149_26015"/>
<feColorMatrix in="SourceAlpha" type="matrix" values="0 0 0 0 0 0 0 0 0 0 0 0 0 0 0 0 0 0 127 0" result="hardAlpha"/>
<feOffset dy="1.5"/>
<feGaussianBlur stdDeviation="2.25"/>
<feColorMatrix type="matrix" values="0 0 0 0 0.0627451 0 0 0 0 0.0941176 0 0 0 0 0.156863 0 0 0 0.1 0"/>
<feBlend mode="normal" in2="effect1_dropShadow_149_26015" result="effect2_dropShadow_149_26015"/>
<feBlend mode="normal" in="SourceGraphic" in2="effect2_dropShadow_149_26015" result="shape"/>
</filter>
<linearGradient id="paint0_linear_149_26015" x1="22.7259" y1="45" x2="22.7259" y2="15.0699" gradientUnits="userSpaceOnUse">
<stop stop-color="#ED1500"/>
<stop offset="1" stop-color="#D70900"/>
</linearGradient>
<linearGradient id="paint1_linear_149_26015" x1="-1.20324e+06" y1="-1.53208e+06" x2="-1.20324e+06" y2="-1.53064e+06" gradientUnits="userSpaceOnUse">
<stop stop-color="#ED1500"/>
<stop offset="1" stop-color="#D70900"/>
</linearGradient>
</defs>
</svg>
